<?xml version="1.0" encoding="UTF-8"?>
<svg version="1.1" xmlns="http://www.w3.org/2000/svg" width="1280" height="642">
<path d="M0 0 C1.51907959 0.00749268 1.51907959 0.00749268 3.06884766 0.01513672 C16.14824931 0.31891907 26.66215186 5.08718501 36.375 13.875 C37.15875 14.74125 37.9425 15.6075 38.75 16.5 C39.31589844 17.09683594 39.88179687 17.69367188 40.46484375 18.30859375 C44.53182693 22.71950786 47.49983218 26.93708512 49.75 32.5 C50.0490625 33.16773438 50.348125 33.83546875 50.65625 34.5234375 C54.58909667 44.90178289 54.63016234 60.0070671 50.73046875 70.40625 C47.69982338 76.87806641 44.17482457 82.8792769 39.75 88.5 C39.09 88.5 38.43 88.5 37.75 88.5 C37.75 89.16 37.75 89.82 37.75 90.5 C35.8515625 92.2265625 35.8515625 92.2265625 33.375 94.125 C32.56289063 94.75664062 31.75078125 95.38828125 30.9140625 96.0390625 C28.75 97.5 28.75 97.5 26.75 97.5 C26.75 98.16 26.75 98.82 26.75 99.5 C25.58397983 100.66602017 24.41647114 101.83058354 23.2421875 102.98828125 C11.71080154 114.67060158 9.96406198 129.77617458 9.75 145.5 C10.84163452 145.65782959 10.84163452 145.65782959 11.95532227 145.81884766 C19.40322409 146.96761509 26.48222064 148.68719288 33.6875 150.875 C34.74525635 151.19098145 35.8030127 151.50696289 36.89282227 151.83251953 C38.956835 152.45030845 41.01995577 153.07108784 43.08203125 153.6953125 C45.15491176 154.32051511 47.23277035 154.929223 49.3125 155.53125 C77.2630947 163.73414192 103.51217586 175.72051002 129.09570312 189.49365234 C135.64232751 193.0066855 142.28971782 196.31133426 148.94775391 199.60693359 C151.55209008 200.89745943 154.15104062 202.19868748 156.75 203.5 C157.53375 203.891875 158.3175 204.28375 159.125 204.6875 C159.66125 204.955625 160.1975 205.22375 160.75 205.5 C160.75 206.16 160.75 206.82 160.75 207.5 C161.32234375 207.62246094 161.8946875 207.74492187 162.484375 207.87109375 C164.84953191 208.52762868 166.82206797 209.43723512 169 210.5625 C169.70640625 210.92472656 170.4128125 211.28695312 171.140625 211.66015625 C171.67171875 211.93730469 172.2028125 212.21445312 172.75 212.5 C172.75 213.16 172.75 213.82 172.75 214.5 C173.59884766 214.66822266 173.59884766 214.66822266 174.46484375 214.83984375 C182.11044256 217.04857229 188.93454132 222.97055015 195.20703125 227.66796875 C197.73625656 229.55777191 197.73625656 229.55777191 200.57421875 231.11328125 C201.65123047 231.79970703 201.65123047 231.79970703 202.75 232.5 C202.75 233.16 202.75 233.82 202.75 234.5 C203.47574219 234.7578125 204.20148437 235.015625 204.94921875 235.28125 C207.87047667 236.55242499 210.05872649 238.04016402 212.5625 240 C213.35269531 240.6084375 214.14289062 241.216875 214.95703125 241.84375 C215.54871094 242.3903125 216.14039063 242.936875 216.75 243.5 C216.75 244.16 216.75 244.82 216.75 245.5 C217.34296875 245.77529541 217.9359375 246.05059082 218.546875 246.33422852 C220.64641905 247.44519071 222.2181735 248.59513767 224 250.15234375 C224.60247559 250.67602539 225.20495117 251.19970703 225.82568359 251.73925781 C226.46070801 252.29967773 227.09573242 252.86009766 227.75 253.4375 C228.41209473 254.01725586 229.07418945 254.59701172 229.75634766 255.19433594 C256.3157795 278.53192942 256.3157795 278.53192942 263.75 288.5 C263.75 289.16 263.75 289.82 263.75 290.5 C264.74 290.83 265.73 291.16 266.75 291.5 C268.04931641 292.87597656 268.04931641 292.87597656 269.3515625 294.640625 C270.08052734 295.61999023 270.08052734 295.61999023 270.82421875 296.61914062 C271.33597656 297.32232422 271.84773437 298.02550781 272.375 298.75 C272.90480469 299.46349609 273.43460938 300.17699219 273.98046875 300.91210938 C276.53475679 304.37424679 279.02230921 307.86617272 281.3984375 311.453125 C281.79853027 312.05350586 282.19862305 312.65388672 282.61083984 313.27246094 C283.69203391 314.91209429 284.75287625 316.56509476 285.8125 318.21875 C286.7715625 319.34796875 286.7715625 319.34796875 287.75 320.5 C291.76683173 320.5 292.63803268 320.23204532 295.9375 318.375 C303.22375103 314.57535502 310.97214555 312.08802247 318.75 309.5 C319.70519531 309.17773438 320.66039062 308.85546875 321.64453125 308.5234375 C327.91243261 306.51851913 334.23210827 305.36470153 340.75 304.5 C341.76964844 304.36335938 342.78929687 304.22671875 343.83984375 304.0859375 C361.4712679 302.21164519 380.90717855 305.6047857 395.75 315.5 C395.75 316.16 395.75 316.82 395.75 317.5 C396.74 317.83 397.73 318.16 398.75 318.5 C400.3203125 320.609375 400.3203125 320.609375 401.875 323.25 C402.39320313 324.11109375 402.91140625 324.9721875 403.4453125 325.859375 C406.52262839 332.08771495 406.41617822 338.74646335 404.8125 345.375 C403.75 348.5 403.75 348.5 402.75 350.5 C400.77 350.5 398.79 350.5 396.75 350.5 C395.78077416 346.73078839 395.94271005 344.26735308 396.75 340.5 C397.40604821 333.93951789 395.86595716 328.24927965 392.75 322.5 C385.40361901 313.90283432 373.57617286 311.39656732 362.75 310.5 C345.45415477 309.68504136 330.07067511 311.86096275 313.75 317.5 C312.63496094 317.8815625 311.51992188 318.263125 310.37109375 318.65625 C302.33535016 321.57475319 294.95366246 325.3956571 287.49853516 329.53320312 C284.94971873 330.94249006 282.37876514 332.31030654 279.8125 333.6875 C275.88435439 335.82427071 272.11457733 338.11878053 268.40625 340.6171875 C266.75 341.5 266.75 341.5 263.75 341.5 C263.75 342.16 263.75 342.82 263.75 343.5 C261.58984375 345.0859375 261.58984375 345.0859375 258.6875 346.875 C257.74777344 347.46023438 256.80804687 348.04546875 255.83984375 348.6484375 C253.10756781 350.28573054 250.35702891 351.88368302 247.58666992 353.45556641 C245.69125483 354.5334058 243.80450574 355.62545656 241.91796875 356.71875 C218.8460899 369.9910976 218.8460899 369.9910976 207.75 368.5 C204.62664945 367.3910895 201.6904862 366.02469655 198.75 364.5 C198.75 363.84 198.75 363.18 198.75 362.5 C197.76 362.17 196.77 361.84 195.75 361.5 C193.38676465 357.81613313 191.67599265 354.78035376 190.75 350.5 C190.49605469 351.03109375 190.24210938 351.5621875 189.98046875 352.109375 C186.24291785 359.78045326 186.24291785 359.78045326 183.75 362.5 C183.09 362.5 182.43 362.5 181.75 362.5 C181.75 363.16 181.75 363.82 181.75 364.5 C177.76709519 366.96812984 174.35243217 368.93017874 169.5625 368.4375 C164.79104833 367.26419221 162.07919541 366.59734233 159.37109375 362.32421875 C156.72359085 357.35355091 155.22584038 353.09112442 154.75 347.5 C154.42 347.17 154.09 346.84 153.75 346.5 C153.44707031 347.15226562 153.14414062 347.80453125 152.83203125 348.4765625 C146.42823063 361.8358758 146.42823063 361.8358758 139.75 364.5 C134.37756531 365.27096872 130.08549881 365.25273569 125.3125 362.5625 C120.2241101 356.48125353 118.31881365 350.32118774 117.75 342.5 C117.193125 343.44875 116.63625 344.3975 116.0625 345.375 C113.68429698 348.58878787 112.50965574 349.45565118 108.75 350.5 C108.75 351.16 108.75 351.82 108.75 352.5 C107.1 353.16 105.45 353.82 103.75 354.5 C104.471875 355.551875 105.19375 356.60375 105.9375 357.6875 C112.4222701 368.17702897 114.88655858 379.48835734 116.75 391.5 C116.93691406 392.634375 117.12382813 393.76875 117.31640625 394.9375 C118.82948847 407.36931071 119.82886594 424.74012377 112.75 435.5 C111.03159485 437.64930433 110.17690353 438.41317216 107.4453125 438.96875 C100.49297189 439.05327694 100.49297189 439.05327694 96.8125 436.3125 C83.88088873 418.67848463 85.43047926 394.78805066 85.125 373.9375 C85.08671084 371.75063736 85.04765329 369.56378804 85.0078125 367.37695312 C84.91303788 362.08475581 84.82766623 356.79247464 84.75 351.5 C84.48150742 352.05148712 84.21301483 352.60297424 83.93638611 353.1711731 C83.58089188 353.89344086 83.22539764 354.61570862 82.85913086 355.35986328 C82.50813828 356.0763504 82.15714569 356.79283752 81.79551697 357.53103638 C79.39418247 362.05333531 75.59914234 365.39051459 71.25 368 C66.8351877 368.88296246 63.17375449 368.09599025 59.0625 366.375 C53.99483918 362.26608582 52.24684097 356.61210061 50.75 350.5 C50.45867187 351.15226562 50.16734375 351.80453125 49.8671875 352.4765625 C46.74857778 359.12567379 43.8052462 364.04550888 37.375 367.9375 C32.60155592 368.96038087 28.41941501 368.258825 24 366.25 C17.78586964 361.4167875 16.46330423 355.91133875 14.75 348.5 C14.47800781 349.056875 14.20601562 349.61375 13.92578125 350.1875 C10.161869 357.59027759 6.81597653 363.62471602 -0.5625 367.8125 C-5.12309025 368.97916262 -8.9806911 368.64167293 -13.14453125 366.546875 C-19.22512918 362.14870831 -21.02965167 355.39638145 -23.25 348.5 C-23.54132813 349.14066406 -23.83265625 349.78132813 -24.1328125 350.44140625 C-27.52491492 357.5989557 -30.71416602 363.4427875 -37.6875 367.5 C-42.67945378 368.90125018 -46.1441197 368.40252013 -50.875 366.375 C-57.6286831 361.04314492 -59.44670682 354.60748885 -61.25 346.5 C-61.64832031 347.35464844 -62.04664063 348.20929688 -62.45703125 349.08984375 C-62.98683594 350.19457031 -63.51664063 351.29929687 -64.0625 352.4375 C-64.58457031 353.53964844 -65.10664062 354.64179688 -65.64453125 355.77734375 C-67.25 358.5 -67.25 358.5 -70.25 359.5 C-70.58 360.49 -70.91 361.48 -71.25 362.5 C-75.75259727 365.52550088 -81.05405008 365.23044513 -86.25 364.5 C-90.97269788 362.29038432 -93.48413308 358.26784068 -95.25 353.5 C-96.05125854 349.85150197 -96.69146163 346.19292429 -97.25 342.5 C-97.78625 343.139375 -98.3225 343.77875 -98.875 344.4375 C-101.7495143 346.93378873 -103.48852083 347.26490755 -107.25 347.5 C-108.59135839 347.20058965 -109.92733497 346.87342483 -111.25 346.5 C-111.4975 347.675625 -111.745 348.85125 -112 350.0625 C-113.86228072 357.38229784 -117.06022267 362.16715587 -123.25 366.5 C-129.48232999 369.28465808 -134.91683535 369.16704679 -141.3125 367 C-147.45992558 364.37073579 -150.56478116 360.1129152 -153.3359375 354.171875 C-154.4134844 351.02212251 -154.90909027 347.98214741 -155.375 344.6875 C-155.54257812 343.52605469 -155.71015625 342.36460937 -155.8828125 341.16796875 C-156.00398437 340.28753906 -156.12515625 339.40710938 -156.25 338.5 C-156.75789062 338.89832031 -157.26578125 339.29664063 -157.7890625 339.70703125 C-163.78310887 344.32042649 -163.78310887 344.32042649 -167.5 345.75 C-171.27615788 348.15300956 -171.8665224 350.8711131 -173.3203125 354.9921875 C-175.12688047 359.86536665 -177.73953592 363.84678584 -182.25 366.5 C-187.12823791 368.71738087 -191.15070984 368.91356093 -196.25 367.5 C-199.25 365.9375 -199.25 365.9375 -201.25 363.5 C-202.18951256 358.64585175 -202.18951256 358.64585175 -201.25 355.5 C-197.25766586 349.97500507 -191.4944477 348.42117585 -185.25 346.5 C-184.25311579 334.56141083 -183.8441754 324.12213592 -187.25 312.5 C-190.71485707 313.12032476 -190.71485707 313.12032476 -194.25 314.5 C-195.42779721 316.82114379 -195.42779721 316.82114379 -196.25 319.5 C-196.56839844 320.24378906 -196.88679687 320.98757813 -197.21484375 321.75390625 C-201.48750999 331.89505382 -203.57094753 341.57076026 -203.87182617 352.53735352 C-204.01666228 356.86668262 -204.39281937 360.55858531 -206.25 364.5 C-208.2734375 365.99609375 -208.2734375 365.99609375 -210.625 366.9375 C-211.39585937 367.26621094 -212.16671875 367.59492188 -212.9609375 367.93359375 C-215.50013104 368.56189249 -216.82089843 368.40422504 -219.25 367.5 C-219.58 367.17 -219.91 366.84 -220.25 366.5 C-220.15553584 363.53199698 -220.00305492 360.58723799 -219.8125 357.625 C-219.22835014 347.57286877 -219.14751877 337.56593386 -219.25 327.5 C-219.92160156 328.01046875 -220.59320313 328.5209375 -221.28515625 329.046875 C-260.80772955 357.80910899 -318.01936016 374.6042479 -366.890625 367.96484375 C-379.15152915 365.69384632 -391.94117441 361.60304592 -399.37890625 350.87109375 C-403.07442424 344.77553456 -404.86828615 338.67211933 -404.25 331.5 C-402.07300885 323.32300885 -402.07300885 323.32300885 -400.25 321.5 C-398.58382885 321.45936168 -396.91611905 321.457279 -395.25 321.5 C-394.27550299 325.28971058 -394.47507197 327.71146295 -395.25 331.5 C-396.06460724 339.22368346 -394.54492069 345.2818239 -389.73046875 351.4453125 C-380.20818853 361.02982984 -365.24016887 362.56651803 -352.36547852 362.69042969 C-314.50430198 362.64474501 -276.38854835 354.03068769 -243.25 335.5 C-241.76693359 334.7265625 -241.76693359 334.7265625 -240.25390625 333.9375 C-234.23281452 330.79457552 -228.85762815 327.17069359 -223.46484375 323.0390625 C-221.25 321.5 -221.25 321.5 -219.25 321.5 C-219.23018066 320.63536133 -219.21036133 319.77072266 -219.18994141 318.87988281 C-218.7924331 302.34265874 -218.28457242 285.93460441 -216.25 269.5 C-216.78625 269.87769531 -217.3225 270.25539063 -217.875 270.64453125 C-221.95416696 273.50934094 -226.04008814 276.36224138 -230.16015625 279.16796875 C-231.54445713 280.11170596 -232.92856919 281.05572019 -234.3125 282 C-235.00230957 282.47066895 -235.69211914 282.94133789 -236.40283203 283.42626953 C-240.96727854 286.56180794 -245.37307082 289.83118 -249.6484375 293.35546875 C-251.25 294.5 -251.25 294.5 -253.25 294.5 C-253.25 295.16 -253.25 295.82 -253.25 296.5 C-255.48341339 298.4383786 -257.72236642 300.26186519 -260.0625 302.0625 C-260.70509766 302.56974609 -261.34769531 303.07699219 -262.00976562 303.59960938 C-264.79929594 305.77052883 -266.85976696 307.36992232 -270.25 308.5 C-270.25 309.16 -270.25 309.82 -270.25 310.5 C-270.91 310.5 -271.57 310.5 -272.25 310.5 C-272.25 311.16 -272.25 311.82 -272.25 312.5 C-273.859375 314.12109375 -273.859375 314.12109375 -276 315.9375 C-276.69609375 316.53433594 -277.3921875 317.13117188 -278.109375 317.74609375 C-283.91146993 322.5 -283.91146993 322.5 -286.25 322.5 C-284.90920827 318.76304088 -283.24645202 315.86444521 -280.875 312.6875 C-280.17375 311.74648438 -279.4725 310.80546875 -278.75 309.8359375 C-278.1621875 309.05428223 -278.1621875 309.05428223 -277.5625 308.25683594 C-276.06866767 306.25727912 -274.59686532 304.24233922 -273.125 302.2265625 C-272.04208697 300.75489896 -270.95875514 299.2835435 -269.875 297.8125 C-269.35115723 297.09280029 -268.82731445 296.37310059 -268.28759766 295.6315918 C-267.79308105 294.96554932 -267.29856445 294.29950684 -266.7890625 293.61328125 C-266.34771973 293.01298096 -265.90637695 292.41268066 -265.45166016 291.79418945 C-265.0551123 291.36710693 -264.65856445 290.94002441 -264.25 290.5 C-263.59 290.5 -262.93 290.5 -262.25 290.5 C-261.99863281 289.93152344 -261.74726563 289.36304688 -261.48828125 288.77734375 C-254.86347724 276.59355593 -240.62845178 265.12470382 -229.8984375 256.64453125 C-226.19402886 253.64494372 -222.72497867 250.40858003 -219.24609375 247.15234375 C-217.25 245.5 -217.25 245.5 -215.25 245.5 C-215.25 244.84 -215.25 244.18 -215.25 243.5 C-213.32412421 241.86860063 -211.40673283 240.36276775 -209.375 238.875 C-208.81941406 238.45476562 -208.26382813 238.03453125 -207.69140625 237.6015625 C-203.51235288 234.5 -203.51235288 234.5 -201.25 234.5 C-201.25 233.84 -201.25 233.18 -201.25 232.5 C-198.8465329 230.68156755 -196.44143693 228.98263238 -193.9375 227.3125 C-193.21216064 226.82289795 -192.48682129 226.3332959 -191.73950195 225.82885742 C-189.58170183 224.37768018 -187.41677621 222.93772933 -185.25 221.5 C-184.65960938 221.10425781 -184.06921875 220.70851563 -183.4609375 220.30078125 C-174.7911778 214.5 -174.7911778 214.5 -171.25 214.5 C-171.25 213.84 -171.25 213.18 -171.25 212.5 C-169.81705502 211.65885829 -168.37845595 210.82734313 -166.9375 210 C-166.13699219 209.5359375 -165.33648437 209.071875 -164.51171875 208.59375 C-162.25 207.5 -162.25 207.5 -159.25 207.5 C-159.25 206.84 -159.25 206.18 -159.25 205.5 C-158.28126953 205.02433594 -158.28126953 205.02433594 -157.29296875 204.5390625 C-150.80962125 201.32843077 -144.39408356 198.00915584 -138 194.625 C-129.47676559 190.12301399 -120.90791881 185.73706189 -112.25 181.5 C-111.46431641 181.11344238 -110.67863281 180.72688477 -109.86914062 180.32861328 C-92.78579507 171.9497973 -75.42309299 164.21081833 -57.25 158.5 C-56.20328125 158.13777344 -55.1565625 157.77554688 -54.078125 157.40234375 C-45.89751256 154.57548767 -37.63822872 152.1112263 -29.3125 149.75 C-27.71305542 149.29113403 -27.71305542 149.29113403 -26.08129883 148.82299805 C-20.45724211 147.24925155 -15.06842698 146.03213051 -9.25 145.5 C-9.26160156 144.68917969 -9.27320313 143.87835938 -9.28515625 143.04296875 C-9.46302852 121.21550069 -4.87359446 102.73417171 10.75 86.5 C11.41 86.5 12.07 86.5 12.75 86.5 C13.08 85.51 13.41 84.52 13.75 83.5 C15.2518894 82.44119674 16.80222218 81.45031892 18.375 80.5 C25.30423808 75.81432611 28.99971315 69.68546856 32.1875 62.0625 C33.90114384 51.20942236 33.162475 41.9308023 26.6875 32.875 C20.56972196 25.52078682 13.3762841 20.47710402 3.75 19.5 C-4.98666894 18.70575737 -12.56612889 21.58640921 -19.65625 26.51171875 C-21.25 27.5 -21.25 27.5 -23.25 27.5 C-23.25 28.16 -23.25 28.82 -23.25 29.5 C-23.91 29.5 -24.57 29.5 -25.25 29.5 C-25.62125 30.49 -25.62125 30.49 -26 31.5 C-26.99673623 33.89216694 -28.06706038 36.13783006 -29.25 38.4375 C-30.51690604 40.91076143 -31.42541356 43.07009406 -32.25 45.75 C-33.42262973 48.97473176 -34.50813471 50.44360103 -37.25 52.5 C-40.55949502 53.48580703 -42.58981258 53.66888515 -45.9375 52.8125 C-48.68585046 51.25262542 -49.82979098 50.34041803 -51.25 47.5 C-52.6136854 38.1246629 -48.12772025 28.98914795 -43.125 21.25 C-32.6277444 7.20791953 -17.26460084 -0.11182851 0 0 Z M-13 186.6875 C-14.53744873 187.0280542 -14.53744873 187.0280542 -16.10595703 187.37548828 C-24.42276748 189.24913373 -32.61638083 191.42747623 -40.80175781 193.80224609 C-43.48379022 194.56663068 -46.17407837 195.2951621 -48.8671875 196.01953125 C-118.2730374 212.71381985 -118.2730374 212.71381985 -178.25 247.5 C-178.37132066 249.08937582 -178.42965205 250.68365136 -178.4609375 252.27734375 C-178.50347656 253.76137695 -178.50347656 253.76137695 -178.546875 255.27539062 C-178.59808579 257.34814745 -178.64259765 259.42108304 -178.6796875 261.49414062 C-179.12979445 276.05697603 -184.78089399 288.19838058 -192.796875 300.1875 C-194.38647257 302.51442133 -194.38647257 302.51442133 -195.25 305.5 C-195.91 305.5 -196.57 305.5 -197.25 305.5 C-200.7283042 308.38809421 -203.88671239 311.48484054 -204.70703125 316.03515625 C-204.68963047 318.23113516 -204.56673453 320.3281061 -204.25 322.5 C-201.76273214 320.26217161 -200.48515243 318.13465461 -199.0625 315.125 C-196.40893942 310.25484241 -193.44283583 307.50610478 -188.25 305.5 C-183.80653835 304.49125917 -180.88874638 305.11434181 -176.9375 307.5 C-169.53836371 314.75877327 -169.32379153 327.73858443 -169.19921875 337.46484375 C-169.21597656 338.46644531 -169.23273438 339.46804688 -169.25 340.5 C-165.6624787 339.16749209 -162.4135377 337.669283 -159.25 335.5 C-159.25 334.84 -159.25 334.18 -159.25 333.5 C-158.59 333.5 -157.93 333.5 -157.25 333.5 C-154.72887205 329.9183976 -153.31839534 326.17472364 -151.875 322.0625 C-149.18073232 315.00001134 -146.94791085 310.63514246 -140 307.125 C-133.79159737 304.6745857 -128.20377473 304.3927851 -122 307 C-116.69540089 309.9798744 -114.39240726 314.70926225 -112.15625 320.171875 C-110.99816269 324.42485079 -110.79298856 328.48629877 -110.625 332.875 C-110.58632813 333.70644531 -110.54765625 334.53789062 -110.5078125 335.39453125 C-110.41425754 337.42935156 -110.33107287 339.46464416 -110.25 341.5 C-106.14776415 342.51540112 -106.14776415 342.51540112 -102.25 341.5 C-102.25 340.84 -102.25 340.18 -102.25 339.5 C-101.59 339.5 -100.93 339.5 -100.25 339.5 C-96.44149741 329.217043 -94.86830149 319.4632293 -95.25 308.5 C-93.85550891 308.016941 -92.45933293 307.53874483 -91.0625 307.0625 C-90.28519531 306.79566406 -89.50789063 306.52882813 -88.70703125 306.25390625 C-86.23608857 305.49573147 -83.78589764 304.98944856 -81.25 304.5 C-81.31058594 305.20382812 -81.37117188 305.90765625 -81.43359375 306.6328125 C-84.73991008 331.46344984 -84.73991008 331.46344984 -80.25 355.5 C-79.92 355.83 -79.59 356.16 -79.25 356.5 C-76.91055264 356.21269945 -74.5760857 355.88063221 -72.25 355.5 C-72.25 354.84 -72.25 354.18 -72.25 353.5 C-71.59 353.5 -70.93 353.5 -70.25 353.5 C-64.55348598 345.45518898 -62.29206731 334.71252273 -60.5625 325.125 C-60.38025879 324.11759766 -60.38025879 324.11759766 -60.19433594 323.08984375 C-59.69682805 320.2645595 -59.24247893 317.44239013 -58.87109375 314.59765625 C-58.5 312.1875 -58.5 312.1875 -57.25 308.5 C-53.25272048 306.01112785 -49.9419014 305.07346351 -45.25 305.5 C-45.22236643 306.85404497 -45.20332578 308.20826555 -45.1875 309.5625 C-45.17589844 310.31660156 -45.16429687 311.07070313 -45.15234375 311.84765625 C-45.25 314.5 -45.25 314.5 -45.7434082 317.72827148 C-46.49237788 323.30457633 -46.47396066 328.84108198 -46.49023438 334.4609375 C-46.49997702 336.49520207 -46.53108641 338.52846991 -46.5625 340.5625 C-46.64096243 349.95365682 -46.64096243 349.95365682 -43.25 358.5 C-42.12465895 359.85618499 -42.12465895 359.85618499 -39.1875 359.5625 C-38.218125 359.541875 -37.24875 359.52125 -36.25 359.5 C-35.59 358.18 -34.93 356.86 -34.25 355.5 C-33.59 355.5 -32.93 355.5 -32.25 355.5 C-19.56426024 332.93602026 -22.05328078 307.56202867 -22.25 282.5 C-34.20844856 280.60062761 -47.04421503 280.27063368 -58.25 285.5 C-58.25 283.85 -58.25 282.2 -58.25 280.5 C-46.16805496 277.3820787 -34.67361671 277.14996312 -22.25 277.5 C-22.23018066 276.76475098 -22.21036133 276.02950195 -22.18994141 275.27197266 C-22.0937501 271.88933373 -21.98445743 268.50723463 -21.875 265.125 C-21.8440625 263.96871094 -21.813125 262.81242187 -21.78125 261.62109375 C-21.54730173 254.71961964 -20.88321078 248.21516393 -19.25 241.5 C-10.625 238.375 -10.625 238.375 -7.25 239.5 C-7.30329468 241.26428345 -7.30329468 241.26428345 -7.35766602 243.06420898 C-7.48765464 247.41188783 -7.61094794 251.75973484 -7.73217773 256.10766602 C-7.7856766 257.99248476 -7.8410118 259.87725228 -7.89819336 261.76196289 C-7.9798851 264.46489411 -8.0550554 267.16793839 -8.12890625 269.87109375 C-8.15594131 270.71900986 -8.18297638 271.56692596 -8.21083069 272.4405365 C-8.26280526 274.45973106 -8.26188213 276.48017158 -8.25 278.5 C-2.95842508 283.79157492 15.86803246 281.68698899 22.6875 281.6875 C23.74783447 281.6882251 24.80816895 281.6889502 25.90063477 281.68969727 C30.99030611 281.8701046 30.99030611 281.8701046 35.75 280.5 C35.75 282.15 35.75 283.8 35.75 285.5 C30.93011918 285.38079659 26.11040513 285.25649642 21.29077148 285.12768555 C19.65473913 285.08465327 18.01867095 285.04295935 16.38256836 285.00268555 C14.01665497 284.94420554 11.65091673 284.88074516 9.28515625 284.81640625 C8.56602554 284.79969376 7.84689484 284.78298126 7.10597229 284.76576233 C1.94233875 284.61864381 -3.12134506 284.12091859 -8.25 283.5 C-8.31960586 292.39281882 -8.37286485 301.2855434 -8.40543652 310.17857552 C-8.42107175 314.30827605 -8.44227061 318.43778978 -8.47631836 322.56738281 C-8.50898863 326.55499983 -8.52686913 330.54243751 -8.53463173 334.53017807 C-8.54016152 336.04918108 -8.55095992 337.56817462 -8.56719017 339.08710098 C-8.58906711 341.21990177 -8.59196275 343.35196779 -8.59057617 345.48486328 C-8.59723801 346.6973172 -8.60389984 347.90977112 -8.61076355 349.15896606 C-8.1899463 353.05615777 -7.09860345 356.65139655 -4.25 359.5 C-0.52775401 359.79386153 0.52786243 359.64809171 3.75 357.5 C3.75 356.84 3.75 356.18 3.75 355.5 C4.41 355.5 5.07 355.5 5.75 355.5 C7.56387523 351.54730398 9.34977004 347.58583277 11.06640625 343.58984375 C11.50255249 342.57458618 11.50255249 342.57458618 11.94750977 341.53881836 C15.06890765 333.60854949 15.42957578 325.01701159 16.28515625 316.609375 C16.60995363 313.52764162 17.06602533 310.52643657 17.75 307.5 C21.8696377 306.20756464 25.41831683 305.23747375 29.75 305.5 C29.87615481 312.81697878 29.87615481 312.81697878 29.2565918 316.17138672 C28.37180677 321.98495734 28.52499952 327.85330852 28.50976562 333.72216797 C28.50002773 335.99353219 28.46894145 338.26400252 28.4375 340.53515625 C28.43097146 341.99218218 28.4257204 343.44921452 28.421875 344.90625 C28.40785645 346.87561523 28.40785645 346.87561523 28.39355469 348.88476562 C28.79164415 352.92237434 29.79531037 356.54531037 32.75 359.5 C35.57981591 360.08528777 35.57981591 360.08528777 38.75 359.5 C47.76299041 350.91619961 50.01673768 338.73631526 52.0625 326.9375 C53.34777658 320.2444906 55.479652 314.85280391 59.75 309.5 C60.41 309.17 61.07 308.84 61.75 308.5 C61.75 307.84 61.75 307.18 61.75 306.5 C69.21256712 304.57417623 75.37729682 304.72629457 82.12109375 308.52734375 C82.65863281 308.84832031 83.19617188 309.16929687 83.75 309.5 C84.41 309.83 85.07 310.16 85.75 310.5 C85.75 309.84 85.75 309.18 85.75 308.5 C87.14449109 308.016941 88.54066707 307.53874483 89.9375 307.0625 C90.71480469 306.79566406 91.49210937 306.52882813 92.29296875 306.25390625 C94.76391143 305.49573147 97.21410236 304.98944856 99.75 304.5 C99.71970703 305.22364746 99.68941406 305.94729492 99.65820312 306.69287109 C99.06988767 320.96857189 98.58189918 335.21143047 98.75 349.5 C102.4657043 348.93500935 105.47447281 348.38972722 108.75 346.5 C108.75 345.84 108.75 345.18 108.75 344.5 C109.74 344.17 110.73 343.84 111.75 343.5 C113.15366543 341.15628368 113.15366543 341.15628368 114.3125 338.3125 C114.72628906 337.37019531 115.14007812 336.42789063 115.56640625 335.45703125 C117.75672104 329.98485865 119.00990396 325.35421835 119.3125 319.4375 C119.53374067 315.27907842 119.92825682 311.60871591 120.75 307.5 C125.04 306.51 129.33 305.52 133.75 304.5 C133.605625 306.45421875 133.46125 308.4084375 133.3125 310.421875 C133.17319507 312.35821358 133.03392315 314.29455466 132.89550781 316.23095703 C132.75362064 318.19976053 132.60733651 320.1682456 132.4609375 322.13671875 C130.30648855 339.02862083 130.30648855 339.02862083 134.3125 354.9375 C134.786875 355.453125 135.26125 355.96875 135.75 356.5 C140.60280047 356.05883632 142.60242339 355.1928261 145.75 351.5 C152.37569865 339.83877037 154.858333 326.23284851 156.23046875 313.0234375 C156.75 309.5 156.75 309.5 158.75 307.5 C160.60483454 306.89286197 162.48421385 306.35868948 164.375 305.875 C165.37789062 305.61460937 166.38078125 305.35421875 167.4140625 305.0859375 C168.18492187 304.89257812 168.95578125 304.69921875 169.75 304.5 C169.68941406 305.28012451 169.62882812 306.06024902 169.56640625 306.86401367 C169.28917608 310.47147123 169.01955565 314.07946118 168.75 317.6875 C168.65460938 318.91404297 168.55921875 320.14058594 168.4609375 321.40429688 C167.05183299 336.90205047 167.05183299 336.90205047 169.125 352.1875 C169.50785156 353.64736328 169.50785156 353.64736328 169.8984375 355.13671875 C170.61375898 357.64744715 170.61375898 357.64744715 172.75 359.5 C176.08450012 359.5629151 178.62633152 359.53463463 181.1796875 357.18359375 C182.54445498 355.35683976 183.65769304 353.50128968 184.75 351.5 C185.09804688 350.90703125 185.44609375 350.3140625 185.8046875 349.703125 C188.93329703 343.63992825 189.94834639 337.09747225 191.24584961 330.46557617 C192.39750272 324.73563458 193.92109191 319.64671094 196.75 314.5 C197.41947417 313.16807412 198.08685677 311.83508924 198.75 310.5 C199.41 310.5 200.07 310.5 200.75 310.5 C200.75 309.84 200.75 309.18 200.75 308.5 C201.69875 308.190625 202.6475 307.88125 203.625 307.5625 C206.61080408 306.62605258 206.61080408 306.62605258 208.75 305.5 C213.65241806 305.0858468 218.40805355 304.94591385 222.75 307.5 C226.09293523 310.92427185 226.18250055 313.75301283 226.1875 318.4375 C226.20683594 319.64277344 226.22617187 320.84804688 226.24609375 322.08984375 C225.67075417 326.04473711 224.38540828 327.58278568 221.75 330.5 C221.75 331.16 221.75 331.82 221.75 332.5 C216.10600642 334.94064587 210.77248522 334.69289099 204.75 334.5 C204.69548286 336.54136395 204.65697515 338.58315856 204.625 340.625 C204.59019531 342.33042969 204.59019531 342.33042969 204.5546875 344.0703125 C204.89739369 350.08823315 206.69962219 354.06989927 210.75 358.5 C215.65334397 360.95167199 221.67089148 360.08140019 226.78125 358.65234375 C240.92134141 353.04092398 253.71825904 344.00427662 266.4765625 335.8359375 C270.73304314 333.12146734 275.0352762 330.53228066 279.4375 328.0625 C280.05560547 327.71251953 280.67371094 327.36253906 281.31054688 327.00195312 C282.78889588 326.16536803 284.26921514 325.33226594 285.75 324.5 C286.08804805 321.47167442 286.08804805 321.47167442 284.140625 319.74609375 C283.08101562 318.85083984 283.08101562 318.85083984 282 317.9375 C281.30390625 317.33808594 280.6078125 316.73867188 279.890625 316.12109375 C277.90522037 314.61754827 276.0124561 313.52421999 273.75 312.5 C273.75 311.84 273.75 311.18 273.75 310.5 C273.09 310.5 272.43 310.5 271.75 310.5 C271.75 309.84 271.75 309.18 271.75 308.5 C269.70162033 306.74762896 267.65318009 305.1137324 265.5 303.5 C264.91347656 303.04882812 264.32695313 302.59765625 263.72265625 302.1328125 C260.84930084 299.95035379 258.06676616 297.94492783 254.75 296.5 C254.75 295.84 254.75 295.18 254.75 294.5 C252.87637411 292.95339921 252.87637411 292.95339921 250.4375 291.375 C246.7590227 288.87631444 243.13670779 286.33327243 239.5625 283.6875 C233.31618142 279.12458643 226.87904359 274.86752129 220.42285156 270.61035156 C218.26660048 269.17914462 216.13549533 267.71193408 214 266.25 C210.03288591 263.60032305 205.89174014 261.36623192 201.68359375 259.125 C198.56669009 257.39845949 195.57312904 255.53036721 192.5625 253.625 C185.96989932 249.53835865 179.16128237 246.04448654 172.18066406 242.67626953 C169.47651217 241.36765123 166.78150273 240.04105465 164.0859375 238.71484375 C146.57989403 230.15335116 128.81806842 221.94965412 110.41357422 215.4921875 C108.3790482 214.7343219 106.37233841 213.90137264 104.38110352 213.03613281 C100.78320991 211.5140494 97.18788372 210.25191845 93.47265625 209.046875 C92.45313118 208.71530899 92.45313118 208.71530899 91.41300964 208.37704468 C89.21417871 207.6638048 87.01358252 206.95625873 84.8125 206.25 C84.05634399 206.00666931 83.30018799 205.76333862 82.52111816 205.51263428 C62.94534152 199.21964555 43.4075756 193.42506622 23.30126953 189.06738281 C20.79540641 188.51009804 18.30175882 187.91609583 15.80859375 187.3046875 C15.03636475 187.11608154 14.26413574 186.92747559 13.46850586 186.7331543 C12.04486518 186.38300167 10.62237757 186.02810739 9.20141602 185.66723633 C1.25437085 183.7302388 -5.16742623 184.92985237 -13 186.6875 Z M-184.25 249.5 C-186.90082912 251.11695676 -189.54474348 252.7448885 -192.1875 254.375 C-193.31961914 255.06529297 -193.31961914 255.06529297 -194.47460938 255.76953125 C-195.55258789 256.43662109 -195.55258789 256.43662109 -196.65234375 257.1171875 C-197.64995728 257.72989502 -197.64995728 257.72989502 -198.66772461 258.35498047 C-200.81800142 259.91103636 -201.18247633 261.11723873 -201.63891602 263.70458984 C-203.53879834 278.05219618 -204.68662192 292.02679178 -204.25 306.5 C-192.60565238 297.78667824 -185.52636246 282.58424858 -182.65234375 268.58984375 C-182.2003917 265.11902753 -182.08111611 261.74982924 -182.0625 258.25 C-182.04832031 257.02796875 -182.03414062 255.8059375 -182.01953125 254.546875 C-181.92545251 251.39004175 -181.92545251 251.39004175 -184.25 249.5 Z M-134.53125 315.9453125 C-139.84091782 322.82935857 -140.61223464 329.91156826 -140.625 338.375 C-140.64949219 339.22191406 -140.67398437 340.06882812 -140.69921875 340.94140625 C-140.72747573 347.09200877 -139.59792942 352.25797774 -136.25 357.5 C-133.127998 359.58133467 -132.31733011 359.7737822 -128.75 359.75 C-127.58984375 359.75773437 -127.58984375 359.75773437 -126.40625 359.765625 C-123.95486156 359.62738062 -123.95486156 359.62738062 -121.25 357.5 C-121.25 356.84 -121.25 356.18 -121.25 355.5 C-120.59 355.5 -119.93 355.5 -119.25 355.5 C-115.54052708 347.91419206 -113.63289463 342.85504443 -115.25 334.5 C-114.92 333.84 -114.59 333.18 -114.25 332.5 C-114.18192565 326.06016672 -115.88378448 319.9904136 -119.25 314.5 C-124.30769206 311.12820529 -130.3909515 311.27485383 -134.53125 315.9453125 Z M70.9375 314.6875 C64.73261556 322.66520856 64.4040345 331.83968848 64.4375 341.625 C64.42138672 342.57503906 64.40527344 343.52507812 64.38867188 344.50390625 C64.38465831 350.29147218 65.05285655 354.36190614 67.75 359.5 C69.73 359.5 71.71 359.5 73.75 359.5 C73.75 358.84 73.75 358.18 73.75 357.5 C74.41 357.5 75.07 357.5 75.75 357.5 C83.33602819 347.46686594 86.54022286 334.60199938 86.16015625 322.109375 C85.47722095 317.76460567 84.21320196 316.22635048 80.75 313.5 C76.26432231 311.97807364 74.72561416 311.74118899 70.9375 314.6875 Z M209.23046875 318.12109375 C206.98669868 321.72651849 206.22426905 325.31868918 205.75 329.5 C208.61608129 330.93304064 210.56300783 330.80644155 213.75 330.5 C217.1169115 328.75651307 217.1169115 328.75651307 219.75 326.5 C219.75 325.84 219.75 325.18 219.75 324.5 C220.41 324.5 221.07 324.5 221.75 324.5 C221.77687279 322.68757948 221.79633715 320.87504767 221.8125 319.0625 C221.82990234 317.54849609 221.82990234 317.54849609 221.84765625 316.00390625 C222.03612676 313.55978933 222.03612676 313.55978933 220.75 312.5 C214.93940498 311.2548725 212.66478178 313.88316664 209.23046875 318.12109375 Z M-196.25 357.5 C-196.25 358.16 -196.25 358.82 -196.25 359.5 C-193.79775306 359.39386164 -193.79775306 359.39386164 -191.25 358.5 C-189.87533375 356.02363988 -189.87533375 356.02363988 -189.25 353.5 C-192.43040834 353.5 -193.9584232 355.44964181 -196.25 357.5 Z M99.75 359.5 C99.70000693 365.77643719 99.6640039 372.05275468 99.64013672 378.3293457 C99.63017121 380.45794701 99.61659392 382.58653497 99.59912109 384.71508789 C99.02024085 407.59892494 99.02024085 407.59892494 104.75 429.5 C106.78687064 430.27818095 106.78687064 430.27818095 108.75 430.5 C115.90515986 420.85608889 113.57913804 402.04153571 112 390.75 C110.31045936 381.39162243 108.24852319 371.92561235 103.75 363.5 C103.08333333 362.16666667 102.41666667 360.83333333 101.75 359.5 C101.09 359.5 100.43 359.5 99.75 359.5 Z " fill="#FEFEFE" transform="translate(639.25,102.5)"/>
<path d="M0 0 C0 0.66 0 1.32 0 2 C-0.66 2 -1.32 2 -2 2 C-1.505 10.415 -1.505 10.415 -1 19 C-3.31 19 -5.62 19 -8 19 C-8 16.16032769 -7.59732819 13.76264289 -7 11 C-9.31 11 -11.62 11 -14 11 C-13.34 13.31 -12.68 15.62 -12 18 C-13 19 -13 19 -16.5625 19.0625 C-17.696875 19.041875 -18.83125 19.02125 -20 19 C-19.83757812 18.46503906 -19.67515625 17.93007813 -19.5078125 17.37890625 C-18.89682194 14.51665046 -18.86774899 11.86328265 -18.875 8.9375 C-18.87113281 7.37322266 -18.87113281 7.37322266 -18.8671875 5.77734375 C-18.87862843 2.91319372 -18.87862843 2.91319372 -20 0 C-17.36 0 -14.72 0 -12 0 C-12.66 2.31 -13.32 4.62 -14 7 C-11.69 7 -9.38 7 -7 7 C-7.66 4.69 -8.32 2.38 -9 0 C-5.62182575 -0.84454356 -3.32534757 -1.10844919 0 0 Z " fill="#FCFDFD" transform="translate(510,498)"/>
<path d="M0 0 C2.79651501 1.46817038 3.43411431 2.40553901 4.5 5.3125 C5.16 5.3125 5.82 5.3125 6.5 5.3125 C7.49 6.7975 7.49 6.7975 8.5 8.3125 C8.5 6.6625 8.5 5.0125 8.5 3.3125 C7.84 2.9825 7.18 2.6525 6.5 2.3125 C6.5 1.6525 6.5 0.9925 6.5 0.3125 C9.47 0.3125 12.44 0.3125 15.5 0.3125 C15.17 1.3025 14.84 2.2925 14.5 3.3125 C14.27202438 6.04539293 14.08331813 8.76292204 13.9375 11.5 C13.89431641 12.24958984 13.85113281 12.99917969 13.80664062 13.77148438 C13.70077315 15.61828375 13.5999024 17.46536834 13.5 19.3125 C9.64896699 18.77574097 8.18202413 17.19649077 5.75 14.25 C5.13640625 13.51652344 4.5228125 12.78304688 3.890625 12.02734375 C3.43171875 11.46144531 2.9728125 10.89554687 2.5 10.3125 C2.5 11.240625 2.5 12.16875 2.5 13.125 C2.5 15.1875 2.5 17.25 2.5 19.3125 C0.52 19.3125 -1.46 19.3125 -3.5 19.3125 C-3.17 13.7025 -2.84 8.0925 -2.5 2.3125 C-3.16 2.3125 -3.82 2.3125 -4.5 2.3125 C-4.5 1.6525 -4.5 0.9925 -4.5 0.3125 C-2.5 -0.6875 -2.5 -0.6875 0 0 Z " fill="#FBFBFC" transform="translate(567.5,497.6875)"/>
<path d="M0 0 C1.93681161 -0.08107583 3.8745934 -0.13922475 5.8125 -0.1875 C6.89144531 -0.22230469 7.97039063 -0.25710938 9.08203125 -0.29296875 C12 0 12 0 13.90625 1.359375 C15 3 15 3 14.6875 5.4375 C14.460625 6.283125 14.23375 7.12875 14 8 C14 11.11257569 14.17361624 13.10765685 15 16 C15.66 16 16.32 16 17 16 C17 16.99 17 17.98 17 19 C14.75 19.3125 14.75 19.3125 12 19 C9.6875 16.6875 9.6875 16.6875 8 14 C8 13.01 8 12.02 8 11 C7.34 11 6.68 11 6 11 C6.66 13.31 7.32 15.62 8 18 C7 19 7 19 3.9375 19.0625 C2.968125 19.041875 1.99875 19.02125 1 19 C-0.25433458 15.23699626 -0.10695422 11.72789091 -0.0625 7.8125 C-0.05798828 7.06291016 -0.05347656 6.31332031 -0.04882812 5.54101562 C-0.03706354 3.69397617 -0.01912865 1.84697787 0 0 Z M6 3 C6 4.32 6 5.64 6 7 C7.32 6.67 8.64 6.34 10 6 C9.34 5.01 8.68 4.02 8 3 C7.34 3 6.68 3 6 3 Z " fill="#FDFDFD" transform="translate(672,498)"/>
<path d="M0 0 C3.4696382 3.10052776 4.83387437 4.94787101 5.5625 9.5625 C4.79064159 14.2794125 2.93242594 16.58288765 -0.875 19.375 C-3.95083417 20.27965711 -5.92865538 19.87752703 -9 19 C-13.57627119 15.84745763 -13.57627119 15.84745763 -15 13 C-15.37510464 9.74909308 -15.66540869 7.15611549 -13.98828125 4.2421875 C-9.73977457 -1.03973973 -6.45043328 -1.6682155 0 0 Z M-8 3 C-9.91903365 5.8221083 -9.99110212 7.12901932 -9.75 10.625 C-9.30518815 14.05272884 -9.30518815 14.05272884 -7 16 C-4.41645782 16.16687448 -4.41645782 16.16687448 -2 16 C-0.08096635 13.1778917 -0.00889788 11.87098068 -0.25 8.375 C-0.69481185 4.94727116 -0.69481185 4.94727116 -3 3 C-5.58354218 2.83312552 -5.58354218 2.83312552 -8 3 Z " fill="#FCFCFC" transform="translate(550,498)"/>
<path d="M0 0 C2.12849481 4.08671003 2.25669669 7.47925573 1.5625 12 C0.13338027 14.9334563 -0.97356818 15.74361663 -3.8125 17.3125 C-7.97623536 18.40300212 -10.42983262 17.52673522 -14.1875 15.5625 C-16.4375 14 -16.4375 14 -17.4375 12 C-17.98471058 7.43393135 -18.03589248 4.02581569 -15.6875 0 C-10.97184308 -4.19169504 -4.95693896 -4.06723197 0 0 Z M-10.4375 1 C-12.86272207 3.42522207 -12.73379254 4.1720679 -12.75 7.5 C-12.76675781 8.2940625 -12.78351562 9.088125 -12.80078125 9.90625 C-12.68089844 10.5971875 -12.56101562 11.288125 -12.4375 12 C-9.65635944 14.33391203 -9.65635944 14.33391203 -6.75 13.625 C-5.986875 13.41875 -5.22375 13.2125 -4.4375 13 C-3.08068197 9.75871249 -2.31523847 7.68772113 -2.9375 4.1875 C-4.31180776 1.69982632 -4.31180776 1.69982632 -7.4375 1.0625 C-8.4275 1.041875 -9.4175 1.02125 -10.4375 1 Z " fill="#FEFEFE" transform="translate(661.4375,500)"/>
<path d="M0 0 C4.62 0 9.24 0 14 0 C15 5 15 5 14.4375 8.125 C13.6407419 11.19080542 13.6407419 11.19080542 16 14 C15.67 15.65 15.34 17.3 15 19 C10.05 19 5.1 19 0 19 C0.33 16.69 0.66 14.38 1 12 C1.08248297 10.41826769 1.13061657 8.83387153 1.125 7.25 C1.12757813 6.51265625 1.13015625 5.7753125 1.1328125 5.015625 C1.07181042 2.79348354 1.07181042 2.79348354 0 0 Z M6 3 C6 4.32 6 5.64 6 7 C7.98491642 6.73323796 7.98491642 6.73323796 10 6 C10.33 5.01 10.66 4.02 11 3 C9.35 3 7.7 3 6 3 Z M6 11 C6 12.65 6 14.3 6 16 C7.65 16 9.3 16 11 16 C10.67 14.68 10.34 13.36 10 12 C8.68 11.67 7.36 11.34 6 11 Z " fill="#FDFDFD" transform="translate(697,498)"/>
<path d="M0 0 C1 1 1 1 1.0625 4.0625 C1.041875 5.031875 1.02125 6.00125 1 7 C0.01 7 -0.98 7 -2 7 C-2.33 6.01 -2.66 5.02 -3 4 C-3.99 4.33 -4.98 4.66 -6 5 C-5.4225 5.37511719 -4.845 5.75023437 -4.25 6.13671875 C-3.13625 6.90435547 -3.13625 6.90435547 -2 7.6875 C-0.88625 8.43580078 -0.88625 8.43580078 0.25 9.19921875 C2 11 2 11 2.25 13.70703125 C2.1675 14.46371094 2.085 15.22039063 2 16 C1.34 16 0.68 16 0 16 C0 16.66 0 17.32 0 18 C-6.27692308 20.21538462 -6.27692308 20.21538462 -9.9375 19.125 C-10.618125 18.75375 -11.29875 18.3825 -12 18 C-12 16.02 -12 14.04 -12 12 C-11.01 12 -10.02 12 -9 12 C-8.01 13.485 -8.01 13.485 -7 15 C-6.01 15.33 -5.02 15.66 -4 16 C-4 14.68 -4 13.36 -4 12 C-4.78375 11.690625 -5.5675 11.38125 -6.375 11.0625 C-9 10 -9 10 -11 9 C-11.8125 6.6875 -11.8125 6.6875 -12 4 C-9.0110345 -1.3801379 -5.62017976 -1.22177821 0 0 Z " fill="#FEFEFE" transform="translate(480,498)"/>
<path d="M0 0 C1.7941758 2.56310828 2 3.83119306 2 7 C1.01 7.495 1.01 7.495 0 8 C0.99 9.485 0.99 9.485 2 11 C2.5 13.4375 2.5 13.4375 2 16 C-0.625 18.375 -0.625 18.375 -4 20 C-9.3 19.7 -9.3 19.7 -11 18 C-11.04080783 16.00041636 -11.04254356 13.99954746 -11 12 C-10.34 12 -9.68 12 -9 12 C-8.01 13.485 -8.01 13.485 -7 15 C-6.01 15 -5.02 15 -4 15 C-4 14.34 -4 13.68 -4 13 C-5.96722008 11.61876037 -7.96868328 10.28511874 -10 9 C-11 8 -11 8 -11.25 5.625 C-11 3 -11 3 -9.6875 1.25 C-6.34404872 -1.22663058 -3.83091788 -1.27697263 0 0 Z M-6 3 C-5.34 4.32 -4.68 5.64 -4 7 C-3.34 7 -2.68 7 -2 7 C-2.33 5.68 -2.66 4.36 -3 3 C-3.99 3 -4.98 3 -6 3 Z " fill="#FCFDFD" transform="translate(609,498)"/>
<path d="M0 0 C4.29 0.33 8.58 0.66 13 1 C13.33 2.65 13.66 4.3 14 6 C13.34 6.66 12.68 7.32 12 8 C11.28591666 9.98356483 10.61382258 11.98315437 10 14 C9.34 14 8.68 14 8 14 C8 13.34 8 12.68 8 12 C7.01 12 6.02 12 5 12 C5.33 12.763125 5.66 13.52625 6 14.3125 C7 17 7 17 7 20 C4.36 20 1.72 20 -1 20 C-0.9278125 18.89140625 -0.855625 17.7828125 -0.78125 16.640625 C-0.6874335 15.17708759 -0.59368718 13.71354569 -0.5 12.25 C-0.45230469 11.52039063 -0.40460938 10.79078125 -0.35546875 10.0390625 C-0.14183103 6.68189836 0 3.36563724 0 0 Z M5 4 C5 5.32 5 6.64 5 8 C6.32 7.67 7.64 7.34 9 7 C9 6.01 9 5.02 9 4 C7.68 4 6.36 4 5 4 Z " fill="#FCFCFD" transform="translate(420,497)"/>
<path d="M0 0 C1.32 0 2.64 0 4 0 C5.1734316 2.60130627 6.33892508 5.20568508 7.5 7.8125 C7.83386719 8.55048828 8.16773438 9.28847656 8.51171875 10.04882812 C8.82753906 10.76103516 9.14335937 11.47324219 9.46875 12.20703125 C9.90864258 13.18893433 9.90864258 13.18893433 10.35742188 14.19067383 C11 16 11 16 11 19 C9.02 19 7.04 19 5 19 C4.67 17.35 4.34 15.7 4 14 C2.35 14 0.7 14 -1 14 C-1.33 15.65 -1.66 17.3 -2 19 C-3.65 19 -5.3 19 -7 19 C-7.33 18.34 -7.66 17.68 -8 17 C-7.00769103 15.32874278 -6.00509214 13.66360078 -5 12 C-3.89974896 9.421921 -2.87836439 6.82119787 -1.8671875 4.20703125 C-1 2 -1 2 0 0 Z M1 7 C0.67 7.66 0.34 8.32 0 9 C0.66 9 1.32 9 2 9 C1.67 8.34 1.34 7.68 1 7 Z " fill="#FDFDFD" transform="translate(449,498)"/>
<path d="M0 0 C5.94 0 11.88 0 18 0 C18 2.31 18 4.62 18 7 C17.01 7 16.02 7 15 7 C14.67 6.01 14.34 5.02 14 4 C13.01 4.495 13.01 4.495 12 5 C12.0721875 5.75925781 12.144375 6.51851563 12.21875 7.30078125 C12.3115625 8.29464844 12.404375 9.28851563 12.5 10.3125 C12.5928125 11.29863281 12.685625 12.28476562 12.78125 13.30078125 C13 16 13 16 13 19 C10.69 19 8.38 19 6 19 C5.67 18.01 5.34 17.02 5 16 C5.33 15.34 5.66 14.68 6 14 C6.2275015 12.12943209 6.40962811 10.25314042 6.5625 8.375 C6.64628906 7.37210937 6.73007812 6.36921875 6.81640625 5.3359375 C6.87699219 4.56507813 6.93757812 3.79421875 7 3 C6.01 3.33 5.02 3.66 4 4 C3.67 4.99 3.34 5.98 3 7 C2.01 6.67 1.02 6.34 0 6 C0 4.02 0 2.04 0 0 Z " fill="#FEFEFE" transform="translate(618,498)"/>
<path d="M0 0 C1.9375 1.1875 1.9375 1.1875 3 3 C3.41616519 6.25996064 3.2766188 8.34303035 2 11.375 C-0.7102511 13.57707902 -2.70878117 13.51582761 -6.125 13.30859375 C-8 13 -8 13 -10 12 C-11.63983879 8.72032242 -11.17845638 5.62861311 -11 2 C-10.34 2 -9.68 2 -9 2 C-9 1.34 -9 0.68 -9 0 C-5.85000502 -1.57499749 -3.36459118 -0.70833498 0 0 Z " fill="#FEFEFD" transform="translate(668,391)"/>
<path d="M0 0 C2.97 0 5.94 0 9 0 C9 0.66 9 1.32 9 2 C8.34 2 7.68 2 7 2 C7.0721875 2.97582031 7.144375 3.95164062 7.21875 4.95703125 C7.3115625 6.22933594 7.404375 7.50164062 7.5 8.8125 C7.5928125 10.07707031 7.685625 11.34164063 7.78125 12.64453125 C7.91914781 14.75978517 8 16.88025592 8 19 C5.69 19 3.38 19 1 19 C1 16.98954918 1.01184073 14.97906562 1.03515625 12.96875 C1.04417969 11.8240625 1.05320312 10.679375 1.0625 9.5 C1.07410156 8.3553125 1.08570313 7.210625 1.09765625 6.03125 C1.14287301 2.95275839 1.14287301 2.95275839 0 0 Z " fill="#FDFEFD" transform="translate(518,498)"/>
<path d="M0 0 C1.98 0.495 1.98 0.495 4 1 C3.73958333 2.98567708 3.47916667 4.97135417 3.21875 6.95703125 C2.946767 9.15471706 2.946767 9.15471706 3 12 C2.01 12.495 2.01 12.495 1 13 C0.63631108 11.39796533 0.28438048 9.79325797 -0.0625 8.1875 C-0.25972656 7.29417969 -0.45695313 6.40085937 -0.66015625 5.48046875 C-1 3 -1 3 0 0 Z " fill="#E1E1E2" transform="translate(708,500)"/>
</svg>
