<?xml version="1.0" encoding="utf-8"?>
<!-- Generator: Adobe Illustrator 27.5.0, SVG Export Plug-In . SVG Version: 6.00 Build 0)  -->
<svg version="1.1" xmlns="http://www.w3.org/2000/svg" xmlns:xlink="http://www.w3.org/1999/xlink" x="0px" y="0px"
	 viewBox="0 0 500 500" style="enable-background:new 0 0 500 500;" xml:space="preserve">
<g id="BACKGROUND">
	<rect style="fill:#FFFFFF;" width="500" height="500"/>
</g>
<g id="OBJECTS">
	<g>
		<path style="fill:#F1CEAF;" d="M293.867,236.11c0,19.71-14.402,34.897-27.318,47.813c-12.916,12.916-28.103,27.318-47.813,27.318
			s-34.897-14.402-47.813-27.318c-12.916-12.916-27.318-28.103-27.318-47.813c0-19.709,14.402-34.896,27.318-47.813
			c12.916-12.916,28.104-27.318,47.813-27.318s34.897,14.402,47.813,27.318C279.465,201.213,293.867,216.4,293.867,236.11z"/>
		
			<text transform="matrix(1 0 0 1 144.6246 249.1082)" style="fill:#414141; font-family:'Reey-Regular'; font-size:48.0554px; letter-spacing:7;">Fashion</text>
		
			<text transform="matrix(1 0 0 1 231.9245 277.4222)" style="fill:#414141; font-family:'Montserrat-Medium'; font-size:25.6991px; letter-spacing:5;">STORE </text>
		<rect x="308.266" y="304.685" style="fill:#414141;" width="30.976" height="1.291"/>
		<g>
			<g>
				<path style="fill:#414141;" d="M238.182,313.695c-3.952-6.593-9.88-11.581-15.896-16.221
					c-6.258-4.827-12.843-9.291-19.956-12.767c-3.958-1.934-8.067-3.548-12.305-4.753c-0.997-0.284-1.423,1.268-0.428,1.551
					c7.329,2.082,14.198,5.429,20.643,9.464c6.454,4.041,12.731,8.644,18.347,13.793c3.149,2.887,6.004,6.071,8.207,9.745
					C237.325,315.394,238.716,314.586,238.182,313.695L238.182,313.695z"/>
			</g>
			<g>
				<path style="fill:#414141;" d="M200.477,283.817c-4.532-2.706-6.453-7.779-7.495-12.68c-0.574-2.698-1.082-5.411-1.617-8.116
					c-0.577-2.918-1.191-5.886-0.509-8.841c-0.448,0.118-0.896,0.237-1.344,0.355c4.357,4.65,6.098,10.979,9.758,16.103
					c0.954,1.335,2.226,2.559,2.782,4.132c0.459,1.299,0.359,2.739,0.251,4.088c-0.21,2.627-0.747,5.491,0.734,7.861
					c0.547,0.876,1.939,0.069,1.389-0.812c-1.546-2.474-0.482-5.776-0.434-8.498c0.023-1.304-0.125-2.614-0.686-3.805
					c-0.714-1.516-1.928-2.738-2.876-4.104c-3.598-5.184-5.408-11.436-9.781-16.103c-0.405-0.432-1.21-0.228-1.344,0.355
					c-0.677,2.933-0.241,5.858,0.326,8.771c0.617,3.168,1.206,6.347,1.899,9.499c1.133,5.157,3.404,10.358,8.136,13.184
					C200.557,285.738,201.366,284.348,200.477,283.817L200.477,283.817z"/>
			</g>
			<g>
				<path style="fill:#414141;" d="M207.354,287.397c-1.894-0.793-3.62-1.786-5.748-1.112c-3.132,0.992-4.191,4.598-6.795,6.333
					c-2.478,1.65-5.646,2.162-7.984,4.001c-1.174,0.923-1.81,2.242-2.475,3.545c-0.852,1.67-1.666,3.358-2.452,5.061
					c-0.323,0.701,0.355,1.524,1.1,1.1c2.574-1.463,5.642-0.675,8.447-0.734c2.505-0.053,4.938-0.816,7.06-2.144
					c2.098-1.313,3.835-3.119,5.154-5.206c1.679-2.658,2.912-5.453,5.182-7.7c0.737-0.729-0.401-1.867-1.137-1.137
					c-2.042,2.022-3.35,4.438-4.765,6.905c-1.388,2.42-3.145,4.514-5.571,5.947c-2.355,1.392-4.855,1.817-7.558,1.696
					c-2.62-0.117-5.253-0.363-7.623,0.984c0.367,0.367,0.734,0.734,1.1,1.1c0.687-1.489,1.396-2.968,2.134-4.434
					c0.688-1.366,1.305-2.972,2.599-3.878c2.197-1.539,4.986-2.085,7.269-3.505c1.092-0.679,2.047-1.508,2.85-2.513
					c0.953-1.192,1.75-2.663,3.082-3.483c2.011-1.239,3.825-0.062,5.703,0.725C207.879,289.347,208.296,287.791,207.354,287.397
					L207.354,287.397z"/>
			</g>
			<g>
				<path style="fill:#414141;" d="M217.854,293.961c-5.192-1.919-5.661-8.191-5.787-12.891c-0.073-2.746-0.224-5.421-0.83-8.108
					c-0.687-3.049-1.016-6.029-1.01-9.157c-0.403,0.231-0.807,0.463-1.21,0.694c4.428,3.206,8.79,8.015,10.279,13.395
					c0.407,1.47,0.501,2.976,0.121,4.461c-0.339,1.326-0.881,2.577-1.087,3.938c-0.422,2.79,0.108,5.669-0.661,8.411
					c-0.28,0.998,1.271,1.424,1.551,0.428c0.847-3.018,0.138-6.176,0.805-9.207c0.329-1.497,1.005-2.887,1.185-4.421
					c0.176-1.498-0.04-3.019-0.486-4.453c-1.752-5.631-6.205-10.544-10.895-13.94c-0.51-0.369-1.209,0.13-1.21,0.695
					c-0.006,3.273,0.352,6.394,1.068,9.584c0.747,3.327,0.667,6.646,0.859,10.027c0.279,4.9,1.836,10.231,6.881,12.096
					C218.398,295.872,218.818,294.318,217.854,293.961L217.854,293.961z"/>
			</g>
			<g>
				<path style="fill:#414141;" d="M219.01,295.432c-5.217,0.484-7.255,5.658-9.775,9.462c-0.741,1.118-1.604,2.17-2.695,2.965
					c-1.041,0.759-2.215,1.275-3.339,1.891c-2.287,1.254-2.76,4.201-3.581,6.475c-0.205,0.568,0.432,1.176,0.989,0.989
					c3.172-1.062,6.569-0.337,9.798-1.086c2.858-0.663,5.313-2.66,7.32-4.721c1.923-1.975,3.595-4.419,4.108-7.171
					c0.499-2.673,0.142-5.595-1.31-7.926c-0.546-0.877-1.939-0.07-1.389,0.812c1.324,2.124,1.618,4.858,1.023,7.271
					c-0.636,2.579-2.374,4.78-4.273,6.568c-2.13,2.005-4.455,3.563-7.427,3.857c-2.775,0.275-5.588-0.055-8.278,0.845
					c0.33,0.33,0.66,0.659,0.989,0.989c0.446-1.236,0.873-2.48,1.339-3.708c0.491-1.292,1.335-1.717,2.509-2.323
					c2.012-1.039,3.684-2.276,5.04-4.108c2.428-3.279,4.175-9.03,8.951-9.473C220.033,296.946,220.042,295.336,219.01,295.432
					L219.01,295.432z"/>
			</g>
			<g>
				<path style="fill:#414141;" d="M184.147,304.687c2.843-3.54,6.987-5.817,10.729-8.275c3.86-2.536,7.743-5.064,11.149-8.203
					c0.381-0.352-0.188-0.919-0.569-0.569c-3.558,3.28-7.644,5.881-11.674,8.529c-3.582,2.353-7.483,4.561-10.204,7.949
					C183.257,304.518,183.823,305.091,184.147,304.687L184.147,304.687z"/>
			</g>
			<g>
				<path style="fill:#414141;" d="M184.969,304.536c4.38-0.403,7.832-3.177,11.048-5.941c1.783-1.532,3.569-3.092,5.621-4.26
					c1.812-1.031,3.845-1.637,5.377-3.109c0.374-0.359-0.195-0.927-0.569-0.569c-1.473,1.416-3.471,1.991-5.214,2.983
					c-1.779,1.012-3.37,2.32-4.922,3.645c-3.316,2.831-6.792,6.028-11.342,6.446C184.458,303.779,184.453,304.584,184.969,304.536
					L184.969,304.536z"/>
			</g>
			<g>
				<path style="fill:#414141;" d="M190.149,305.016c5.342-2.516,10.283-5.814,14.664-9.772c0.385-0.348-0.185-0.915-0.569-0.569
					c-4.332,3.913-9.22,7.159-14.502,9.646C189.275,304.542,189.683,305.235,190.149,305.016L190.149,305.016z"/>
			</g>
			<g>
				<path style="fill:#414141;" d="M210.071,265.494c1.793,5.294,3.627,10.679,4.064,16.289c0.347,4.454-1.023,9.94,2.575,13.425
					c0.372,0.36,0.941-0.208,0.569-0.569c-1.885-1.826-2.285-4.424-2.297-6.942c-0.013-2.613,0.099-5.173-0.238-7.776
					c-0.65-5.029-2.277-9.858-3.897-14.642C210.681,264.793,209.904,265.002,210.071,265.494L210.071,265.494z"/>
			</g>
			<g>
				<path style="fill:#414141;" d="M218.493,293.692c-0.857-1.755-0.583-4.226-0.614-6.138c-0.03-1.837-0.033-3.674-0.081-5.511
					c-0.096-3.686-0.39-7.366-1.354-10.937c-0.135-0.499-0.911-0.287-0.776,0.214c1.057,3.917,1.282,7.955,1.351,11.993
					c0.034,1.978,0.035,3.957,0.091,5.934c0.047,1.622-0.041,3.359,0.687,4.85C218.026,294.563,218.72,294.156,218.493,293.692
					L218.493,293.692z"/>
			</g>
			<g>
				<path style="fill:#414141;" d="M210.906,276.078c1.16,4.085,1.585,8.326,1.268,12.561c-0.039,0.516,0.766,0.514,0.804,0
					c0.322-4.301-0.119-8.626-1.297-12.775C211.541,275.367,210.764,275.579,210.906,276.078L210.906,276.078z"/>
			</g>
			<g>
				<path style="fill:#414141;" d="M202.291,315.032c2.931-3.659,7.947-4.233,11.812-6.486c1.954-1.14,3.552-2.75,4.537-4.801
					c1.078-2.244,1.414-4.739,1.695-7.186c0.059-0.513-0.746-0.509-0.804,0c-0.284,2.474-0.632,5.035-1.828,7.259
					c-1.137,2.112-2.966,3.566-5.087,4.612c-3.708,1.83-8.182,2.648-10.894,6.034C201.402,314.863,201.968,315.436,202.291,315.032
					L202.291,315.032z"/>
			</g>
			<g>
				<path style="fill:#414141;" d="M207.276,308.72c2.43-1.554,4.777-3.295,6.889-5.264c1.906-1.778,3.563-4.046,3.5-6.768
					c-0.012-0.517-0.816-0.519-0.804,0c0.062,2.659-1.69,4.778-3.558,6.469c-1.996,1.806-4.166,3.42-6.433,4.869
					C206.435,308.304,206.838,309,207.276,308.72L207.276,308.72z"/>
			</g>
			<g>
				<path style="fill:#414141;" d="M206.901,315.658c3.025-2.234,6.298-4.622,10.219-4.68c0.517-0.008,0.519-0.812,0-0.804
					c-4.079,0.06-7.473,2.461-10.625,4.789C206.083,315.267,206.484,315.966,206.901,315.658L206.901,315.658z"/>
			</g>
			<g>
				<path style="fill:#414141;" d="M189.821,255.823c1.668,9.39,3.444,18.984,8.398,27.285c0.265,0.444,0.961,0.04,0.694-0.406
					c-4.918-8.24-6.661-17.773-8.317-27.093C190.507,255.1,189.731,255.316,189.821,255.823L189.821,255.823z"/>
			</g>
			<g>
				<path style="fill:#414141;" d="M190.907,255.304c2.442,10.518,5.947,20.757,10.449,30.571c0.215,0.47,0.909,0.062,0.694-0.406
					c-4.473-9.75-7.942-19.93-10.368-30.379C191.565,254.586,190.79,254.8,190.907,255.304L190.907,255.304z"/>
			</g>
			<g>
				<path style="fill:#414141;" d="M195.118,262.787c1.625,6.818,4.109,13.399,7.386,19.594c0.242,0.458,0.937,0.052,0.694-0.406
					c-3.245-6.136-5.695-12.65-7.305-19.402C195.774,262.07,194.998,262.283,195.118,262.787L195.118,262.787z"/>
			</g>
		</g>
	</g>
</g>
</svg>
